<svg width="158" height="29" viewBox="0 0 158 29" fill="none" xmlns="http://www.w3.org/2000/svg">
<g clip-path="url(#clip0_0_267)">
<path d="M14.3635 29C22.2965 29 28.7271 22.5084 28.7271 14.5V4.35C28.7271 3.19631 28.2731 2.08987 27.465 1.27409C26.6569 0.458302 25.5609 0 24.418 0L15.0817 0V6.36115C15.0817 7.8126 15.1693 9.31625 15.9234 10.5517C16.4632 11.437 17.1854 12.1948 18.0409 12.7736C18.8965 13.3524 19.8653 13.7387 20.8817 13.9062L21.1568 13.9512C21.2702 13.9903 21.3686 14.0642 21.4383 14.1627C21.508 14.2611 21.5455 14.379 21.5455 14.5C21.5455 14.621 21.508 14.7389 21.4383 14.8373C21.3686 14.9358 21.2702 15.0097 21.1568 15.0488L20.8817 15.0938C19.3966 15.3387 18.0253 16.0483 16.9612 17.1224C15.8972 18.1965 15.1943 19.5809 14.9517 21.0801L14.9072 21.3578C14.8684 21.4723 14.7951 21.5716 14.6977 21.642C14.6002 21.7124 14.4833 21.7502 14.3635 21.7502C14.2436 21.7502 14.1268 21.7124 14.0293 21.642C13.9318 21.5716 13.8586 21.4723 13.8198 21.3578L13.7753 21.0801C13.6093 20.054 13.2267 19.076 12.6533 18.2124C12.0799 17.3488 11.3293 16.6197 10.4523 16.0747C9.22849 15.3135 7.73898 15.225 6.30118 15.225H0.0170898C0.392699 22.8962 6.67176 29 14.3635 29Z" fill="black"/>
<path d="M0 13.775H6.30133C7.73913 13.775 9.22864 13.6866 10.4524 12.9253C11.409 12.3303 12.2143 11.5174 12.8037 10.5517C13.5578 9.31625 13.6455 7.8126 13.6455 6.36115V0H4.30909C3.16625 0 2.07021 0.458302 1.2621 1.27409C0.453992 2.08987 0 3.19631 0 4.35L0 13.775ZM33.3631 1.45C33.3631 1.83456 33.2118 2.20338 32.9424 2.47531C32.6731 2.74723 32.3077 2.9 31.9268 2.9C31.5458 2.9 31.1805 2.74723 30.9111 2.47531C30.6417 2.20338 30.4904 1.83456 30.4904 1.45C30.4904 1.06544 30.6417 0.696623 30.9111 0.424695C31.1805 0.152767 31.5458 0 31.9268 0C32.3077 0 32.6731 0.152767 32.9424 0.424695C33.2118 0.696623 33.3631 1.06544 33.3631 1.45ZM152.047 8.7754C156.062 8.7754 158 11.6065 158 14.8857V21.0446H153.798V15.6165C153.798 14.1303 153.261 12.9036 151.72 12.9036C150.18 12.9036 149.666 14.1303 149.666 15.6165V21.0438H145.464V15.6165C145.464 14.1303 144.951 12.9036 143.409 12.9036C141.869 12.9036 141.332 14.1303 141.332 15.6165V21.0438H137.13V14.885C137.13 11.6058 139.067 8.77468 143.083 8.77468C145.277 8.77468 146.865 9.64758 147.589 11.0867C148.358 9.64758 150.04 8.77395 152.047 8.77395V8.7754ZM129.579 17.2695C130.933 17.2695 131.517 16.0189 131.517 14.5319V9.24665H135.718V15.051C135.718 18.5194 133.711 21.3984 129.579 21.3984C125.447 21.3984 123.44 18.5201 123.44 15.051V9.24665H127.642V14.5319C127.642 16.0182 128.225 17.2695 129.579 17.2695ZM117.261 21.4216C114.623 21.4216 112.919 20.5016 111.915 18.7086L114.95 16.986C115.37 17.7408 116 18.1185 117.051 18.1185C117.915 18.1185 118.311 17.8118 118.311 17.4341C118.311 15.995 112.148 17.458 112.148 12.8811C112.148 10.6626 114.016 8.86965 117.191 8.86965C119.969 8.86965 121.486 10.2377 122.163 11.5594L119.128 13.3052C118.872 12.5976 118.078 12.1728 117.284 12.1728C116.677 12.1728 116.35 12.4323 116.35 12.7861C116.35 14.2492 122.513 12.9043 122.513 17.3398C122.513 19.8172 120.109 21.4216 117.261 21.4216ZM102.58 26.4712H98.378V15.1221C98.378 11.5115 101.063 8.89285 104.798 8.89285C108.44 8.89285 111.218 11.7008 111.218 15.1221C111.218 18.8971 108.743 21.3984 105.031 21.3984C104.167 21.3984 103.304 21.1388 102.58 20.7372V26.4712ZM104.798 17.4109C106.129 17.4109 107.016 16.3727 107.016 15.1453C107.016 13.8954 106.129 12.8804 104.798 12.8804C103.467 12.8804 102.58 13.8954 102.58 15.146C102.58 16.3727 103.467 17.4109 104.798 17.4109ZM94.1687 7.99675C92.7912 7.99675 91.6479 6.84037 91.6479 5.44838C91.6479 4.05638 92.7912 2.9 94.1687 2.9C95.5462 2.9 96.6903 4.05638 96.6903 5.44838C96.6903 6.84037 95.5462 7.99675 94.1687 7.99675ZM92.068 9.24665H96.2701V21.0446H92.068V9.24665ZM84.0057 21.3984C80.3638 21.3984 77.5859 18.5673 77.5859 15.1221C77.5859 11.7008 80.3638 8.86965 84.0057 8.86965C87.6476 8.86965 90.4255 11.7008 90.4255 15.1221C90.4255 18.5673 87.6476 21.3984 84.0057 21.3984ZM84.0057 17.4109C85.3365 17.4109 86.2235 16.3727 86.2235 15.1453C86.2235 13.8954 85.3365 12.8572 84.0057 12.8572C82.6749 12.8572 81.788 13.8954 81.788 15.1453C81.788 16.3727 82.6749 17.4109 84.0057 17.4109ZM69.6514 26.825C66.7572 26.825 64.6557 25.5273 63.5821 23.2145L67.0602 21.3273C67.4337 22.1299 68.1339 22.9557 69.581 22.9557C71.0993 22.9557 72.1026 21.9878 72.2196 20.2891C71.6595 20.785 70.7718 21.162 69.4417 21.162C66.1963 21.162 63.5814 18.6376 63.5814 15.0981C63.5814 11.6776 66.36 8.89285 70.0019 8.89285C73.7372 8.89285 76.4217 11.5123 76.4217 15.1221V19.794C76.4217 24.041 73.503 26.825 69.6514 26.825ZM69.9315 17.1753C71.1919 17.1753 72.1493 16.3016 72.1493 15.0039C72.1493 13.7301 71.1926 12.8804 69.9315 12.8804C68.6941 12.8804 67.7138 13.7301 67.7138 15.0046C67.7138 16.3023 68.6941 17.1745 69.9315 17.1745V17.1753ZM56.4541 21.3984C52.8122 21.3984 50.0336 18.5673 50.0336 15.1221C50.0336 11.7008 52.8122 8.86965 56.4541 8.86965C60.0953 8.86965 62.8739 11.7008 62.8739 15.1221C62.8739 18.5673 60.096 21.3984 56.4541 21.3984ZM56.4541 17.4109C57.7849 17.4109 58.6719 16.3727 58.6719 15.1453C58.6719 13.8954 57.7849 12.8572 56.4541 12.8572C55.1233 12.8572 54.2364 13.8954 54.2364 15.1453C54.2364 16.3727 55.1233 17.4109 56.4541 17.4109ZM42.3821 5.1185V17.0331H49.3391V21.0446H41.7982C39.1373 21.0446 38.0636 19.6287 38.0636 17.387V5.1185H42.3821Z" fill="black"/>
</g>
<defs>
<clipPath id="clip0_0_267">
<rect width="158" height="29" fill="white"/>
</clipPath>
</defs>
</svg>
