<svg width="149" height="35" viewBox="0 0 149 35" fill="none" xmlns="http://www.w3.org/2000/svg">
<g clip-path="url(#clip0_0_270)">
<path d="M42.4792 25.375H52.3138V22.5464H45.4781V9.33862H42.4792V25.375Z" fill="black"/>
<path d="M58.2237 25.7091C59.4145 25.7091 60.4619 25.4418 61.366 24.9072C62.2774 24.3652 62.9867 23.6191 63.4939 22.6689C64.0084 21.7111 64.2657 20.6086 64.2657 19.3614C64.2657 18.1215 64.012 17.0264 63.5049 16.0761C62.9977 15.1184 62.2884 14.3685 61.377 13.8266C60.4729 13.2846 59.4219 13.0136 58.2237 13.0136C57.0477 13.0136 56.0076 13.2809 55.1036 13.8155C54.1995 14.35 53.4902 15.0961 52.9756 16.0539C52.4611 17.0041 52.2039 18.1066 52.2039 19.3614C52.2039 20.6012 52.4538 21.7 52.9536 22.6577C53.4607 23.608 54.1664 24.3541 55.0705 24.8961C55.9746 25.4381 57.0257 25.7091 58.2237 25.7091ZM58.2237 22.8805C57.2902 22.8805 56.581 22.5649 56.0959 21.9339C55.618 21.2954 55.3792 20.4379 55.3792 19.3614C55.3792 18.3145 55.607 17.4681 56.0628 16.8222C56.5258 16.1689 57.2461 15.8422 58.2237 15.8422C59.1719 15.8422 59.8849 16.1615 60.3626 16.8C60.8478 17.4385 61.0903 18.2922 61.0903 19.3614C61.0903 20.3934 60.8515 21.2397 60.3736 21.9005C59.9033 22.5537 59.1866 22.8805 58.2237 22.8805Z" fill="black"/>
<path d="M70.1962 25.7091C70.7549 25.7091 71.2694 25.6422 71.7399 25.5086C72.2176 25.375 72.6513 25.1856 73.0408 24.9406V26.1545C73.0556 26.6 72.9416 26.9712 72.699 27.2681C72.4638 27.5726 72.1478 27.799 71.7509 27.9475C71.3539 28.1034 70.9313 28.1814 70.483 28.1814C70.064 28.1814 69.6744 28.0885 69.3143 27.903C68.9615 27.7174 68.6894 27.4464 68.4983 27.09L65.72 28.4486C66.1757 29.2281 66.8262 29.8555 67.6715 30.3307C68.5168 30.8132 69.4466 31.0545 70.4609 31.0545C71.3356 31.0545 72.1478 30.9357 72.8975 30.6981C73.6472 30.468 74.2794 30.1154 74.7939 29.6402C75.3157 29.1651 75.6723 28.56 75.8634 27.825C75.9295 27.5651 75.9736 27.3016 75.9956 27.0343C76.025 26.7745 76.0397 26.496 76.0397 26.1991V13.3477H73.4157V14.0159C73.0114 13.6966 72.552 13.4516 72.0375 13.2809C71.5303 13.1027 70.9681 13.0136 70.3506 13.0136C69.2114 13.0136 68.2191 13.2884 67.3738 13.8377C66.5285 14.3871 65.8707 15.1406 65.4003 16.0984C64.9372 17.0487 64.7057 18.1364 64.7057 19.3614C64.7057 20.5641 64.9335 21.6443 65.3893 22.602C65.8523 23.5597 66.4954 24.317 67.3186 24.8739C68.1419 25.4306 69.1011 25.7091 70.1962 25.7091ZM70.6814 23.0141C70.0346 23.0141 69.5054 22.8507 69.0937 22.5241C68.6822 22.1974 68.3771 21.7594 68.1787 21.21C67.9802 20.6531 67.8809 20.037 67.8809 19.3614C67.8809 18.6931 67.9839 18.0844 68.1897 17.535C68.3955 16.9781 68.7115 16.5364 69.1378 16.2097C69.5715 15.8756 70.1228 15.7086 70.7916 15.7086C71.7325 15.7086 72.405 16.0464 72.8093 16.722C73.2136 17.3902 73.4157 18.27 73.4157 19.3614C73.4157 20.4527 73.2099 21.3362 72.7983 22.0118C72.394 22.68 71.6884 23.0141 70.6814 23.0141Z" fill="black"/>
<path d="M83.1626 25.7091C84.3534 25.7091 85.4008 25.4418 86.3049 24.9072C87.2161 24.3652 87.9256 23.6191 88.4324 22.6689C88.9469 21.7111 89.2042 20.6086 89.2042 19.3614C89.2042 18.1215 88.9513 17.0264 88.4436 16.0761C87.9369 15.1184 87.2274 14.3685 86.3159 13.8266C85.4118 13.2846 84.3607 13.0136 83.1626 13.0136C81.9866 13.0136 80.9465 13.2809 80.0425 13.8155C79.1384 14.35 78.4291 15.0961 77.9145 16.0539C77.4 17.0041 77.1428 18.1066 77.1428 19.3614C77.1428 20.6012 77.3927 21.7 77.8925 22.6577C78.3996 23.608 79.1053 24.3541 80.0094 24.8961C80.9135 25.4381 81.9646 25.7091 83.1626 25.7091ZM83.1626 22.8805C82.2291 22.8805 81.5198 22.5649 81.0347 21.9339C80.5569 21.2954 80.3181 20.4379 80.3181 19.3614C80.3181 18.3145 80.5459 17.4681 81.0017 16.8222C81.4647 16.1689 82.185 15.8422 83.1626 15.8422C84.1109 15.8422 84.8238 16.1615 85.3016 16.8C85.7867 17.4385 86.0292 18.2922 86.0292 19.3614C86.0292 20.3934 85.7903 21.2397 85.3126 21.9005C84.8422 22.5537 84.1255 22.8805 83.1626 22.8805Z" fill="black"/>
<path d="M90.5262 11.6772H93.5252V9.00452H90.5262V11.6772ZM90.5262 25.375H93.5252V13.3477H90.5262V25.375Z" fill="black"/>
<path d="M95.4856 30.7205H98.5063V24.9406C98.8961 25.1856 99.3258 25.375 99.7962 25.5086C100.274 25.6422 100.792 25.7091 101.351 25.7091C102.446 25.7091 103.406 25.4306 104.229 24.8739C105.052 24.317 105.691 23.5597 106.147 22.602C106.61 21.6443 106.842 20.5641 106.842 19.3614C106.842 18.1364 106.607 17.0487 106.136 16.0984C105.673 15.1406 105.019 14.3871 104.174 13.8377C103.328 13.2884 102.336 13.0136 101.197 13.0136C100.579 13.0136 100.014 13.1027 99.4991 13.2809C98.9914 13.4516 98.5358 13.6966 98.1321 14.0159V13.3477H95.4856V30.7205ZM100.866 23.0141C99.8664 23.0141 99.1612 22.68 98.7489 22.0118C98.3374 21.3362 98.1321 20.4527 98.1321 19.3614C98.1321 18.27 98.3339 17.3902 98.7385 16.722C99.15 16.0464 99.8222 15.7086 100.756 15.7086C101.425 15.7086 101.972 15.8756 102.399 16.2097C102.833 16.5364 103.152 16.9781 103.357 17.535C103.564 18.0844 103.667 18.6931 103.667 19.3614C103.667 20.037 103.567 20.6531 103.369 21.21C103.17 21.7594 102.865 22.1974 102.454 22.5241C102.042 22.8507 101.513 23.0141 100.866 23.0141Z" fill="black"/>
<path d="M112.275 25.7091C113.833 25.7091 115.053 25.3564 115.935 24.6511C116.817 23.9458 117.258 22.977 117.258 21.7445C117.258 20.8091 116.971 20.0704 116.398 19.5284C115.832 18.9864 114.869 18.5372 113.509 18.1809C112.583 17.9433 111.892 17.7502 111.436 17.6018C110.989 17.4534 110.691 17.3085 110.543 17.1675C110.404 17.0264 110.334 16.852 110.334 16.6441C110.334 16.2951 110.499 16.0279 110.83 15.8422C111.169 15.6566 111.613 15.5824 112.164 15.6195C113.333 15.7086 113.973 16.2135 114.083 17.1341L117.148 16.5772C116.994 15.4859 116.464 14.621 115.56 13.9825C114.656 13.3366 113.502 13.0136 112.098 13.0136C110.658 13.0136 109.507 13.3551 108.647 14.0381C107.788 14.7212 107.357 15.6418 107.357 16.8C107.357 17.7206 107.655 18.4481 108.25 18.9827C108.845 19.5099 109.871 19.9627 111.326 20.3414C112.187 20.5715 112.818 20.7571 113.223 20.8981C113.634 21.0392 113.899 21.184 114.016 21.3325C114.134 21.4735 114.193 21.6629 114.193 21.9005C114.193 22.2791 114.046 22.576 113.752 22.7914C113.458 22.9992 113.039 23.1031 112.495 23.1031C111.833 23.1031 111.286 22.9435 110.853 22.6243C110.426 22.3051 110.15 21.8634 110.025 21.2991L106.96 21.7668C107.159 23.0215 107.717 23.9941 108.637 24.6845C109.563 25.3676 110.775 25.7091 112.275 25.7091Z" fill="black"/>
<path d="M122.79 25.7314C123.65 25.7314 124.399 25.5866 125.04 25.2971C125.679 25.0075 126.215 24.6215 126.649 24.1389V25.375H129.295V13.3477H126.274V19.4505C126.274 20.1929 126.189 20.7942 126.02 21.2546C125.859 21.7075 125.649 22.0527 125.392 22.2902C125.135 22.5204 124.859 22.6763 124.565 22.758C124.271 22.8396 123.996 22.8805 123.738 22.8805C123.099 22.8805 122.603 22.7357 122.25 22.4461C121.905 22.1566 121.654 21.7965 121.5 21.366C121.346 20.9353 121.254 20.5085 121.224 20.0852C121.195 19.6546 121.18 19.302 121.18 19.0273V13.3477H118.137V20.0964C118.137 20.2968 118.152 20.6161 118.181 21.0541C118.211 21.4921 118.296 21.9785 118.435 22.513C118.575 23.0401 118.806 23.5486 119.13 24.0386C119.461 24.5286 119.92 24.9332 120.508 25.2525C121.095 25.5717 121.857 25.7314 122.79 25.7314Z" fill="black"/>
<path d="M131.032 25.375H134.052V18.0918C134.052 17.4014 134.239 16.8409 134.615 16.4102C134.997 15.9722 135.5 15.7532 136.125 15.7532C136.779 15.7532 137.29 15.9759 137.658 16.4214C138.032 16.8594 138.22 17.4756 138.22 18.27V25.375H141.219V18.0918C141.219 17.4014 141.406 16.8409 141.781 16.4102C142.163 15.9722 142.667 15.7532 143.291 15.7532C143.946 15.7532 144.456 15.9759 144.824 16.4214C145.199 16.8594 145.387 17.4756 145.387 18.27V25.375H148.385V17.4682C148.385 16.1541 148.036 15.0925 147.338 14.2832C146.647 13.4665 145.621 13.0582 144.261 13.0582C143.497 13.0582 142.796 13.2252 142.156 13.5593C141.516 13.8934 141.006 14.35 140.623 14.9291C140.315 14.3649 139.874 13.912 139.3 13.5705C138.727 13.229 138.014 13.0582 137.161 13.0582C136.441 13.0582 135.78 13.203 135.177 13.4925C134.574 13.7746 134.074 14.1644 133.677 14.6618V13.3477H131.032V25.375Z" fill="black"/>
<path d="M17.3256 0C7.75692 0 0 7.83501 0 17.5C9.56866 17.5 17.3256 9.66499 17.3256 0Z" fill="black"/>
<path d="M17.3256 35C26.8942 35 34.6511 27.165 34.6511 17.5C25.0825 17.5 17.3256 25.335 17.3256 35Z" fill="black"/>
<path d="M17.3256 0C26.8942 0 34.6511 7.83501 34.6511 17.5C25.0825 17.5 17.3256 9.66499 17.3256 0Z" fill="black"/>
<path d="M17.3256 35C7.75692 35 -8.36518e-07 27.165 0 17.5C9.56866 17.5 17.3256 25.335 17.3256 35Z" fill="black"/>
</g>
<defs>
<clipPath id="clip0_0_270">
<rect width="149" height="35" fill="white"/>
</clipPath>
</defs>
</svg>
