<svg width="174" height="33" viewBox="0 0 174 33" fill="none" xmlns="http://www.w3.org/2000/svg">
<g clip-path="url(#clip0_0_232)">
<path fill-rule="evenodd" clip-rule="evenodd" d="M22.0133 9.64037C20.5968 8.73386 18.9314 8.25 17.2277 8.25V0C20.635 0 23.9658 0.967709 26.7989 2.78075C29.632 4.59379 31.8401 7.17074 33.1441 10.1857C34.4479 13.2007 34.7891 16.5183 34.1244 19.719C33.4597 22.9197 31.8189 25.8597 29.4095 28.1672C27.0002 30.4748 23.9305 32.0463 20.5887 32.683C17.2468 33.3196 13.7829 32.9928 10.6349 31.744C7.487 30.4951 4.7964 28.3803 2.9034 25.6669C1.01039 22.9535 0 19.7634 0 16.5H8.61386C8.61386 18.1317 9.11906 19.7267 10.0656 21.0835C11.012 22.4402 12.3574 23.4976 13.9314 24.122C15.5053 24.7465 17.2373 24.9098 18.9082 24.5914C20.5791 24.2731 22.1139 23.4874 23.3187 22.3337C24.5233 21.1798 25.3437 19.7098 25.676 18.1095C26.0084 16.5092 25.8379 14.8503 25.1859 13.3429C24.5339 11.8354 23.4299 10.5469 22.0133 9.64037Z" fill="black"/>
<path fill-rule="evenodd" clip-rule="evenodd" d="M8.61386 4.36007e-06C8.61386 1.08341 8.39106 2.15621 7.95817 3.15715C7.52528 4.15808 6.89079 5.06755 6.09092 5.83364C5.29105 6.59972 4.34147 7.20741 3.29638 7.62201C2.2513 8.03661 1.13118 8.25 3.7652e-07 8.25L0 16.5C2.26237 16.5 4.5026 16.0732 6.59277 15.244C8.68294 14.4148 10.5821 13.1994 12.1818 11.6672C13.7816 10.1351 15.0506 8.31617 15.9163 6.31428C16.7821 4.3124 17.2277 2.16681 17.2277 0L8.61386 4.36007e-06Z" fill="black"/>
<path d="M108.206 11.9233H104.027V24.6385H108.206V11.9233Z" fill="black"/>
<path d="M104.492 9.54247C104.929 9.96107 105.475 10.1704 106.131 10.1704C106.786 10.1704 107.324 9.96107 107.742 9.54247C108.162 9.10646 108.371 8.58316 108.371 7.9727C108.371 7.34481 108.162 6.82153 107.742 6.40294C107.324 5.98432 106.786 5.77502 106.131 5.77502C105.475 5.77502 104.929 5.98432 104.492 6.40294C104.073 6.82153 103.863 7.34481 103.863 7.9727C103.863 8.58316 104.073 9.10646 104.492 9.54247Z" fill="black"/>
<path d="M44.0652 24.6384V6.16742H48.354V21.028H56.9042V24.6384H44.0652Z" fill="black"/>
<path fill-rule="evenodd" clip-rule="evenodd" d="M64.6276 24.9262C63.2617 24.9262 62.0234 24.6385 60.9125 24.0629C59.8198 23.4699 58.9548 22.6676 58.3174 21.6559C57.6801 20.6443 57.3613 19.5105 57.3613 18.2547C57.3613 16.9989 57.6801 15.8739 58.3174 14.8797C58.9548 13.8855 59.8198 13.1006 60.9125 12.5251C62.0052 11.932 63.2436 11.6355 64.6276 11.6355C66.0116 11.6355 67.25 11.9233 68.3426 12.4989C69.4353 13.0745 70.3004 13.8681 70.9377 14.8797C71.5752 15.8739 71.8939 16.9989 71.8939 18.2547C71.8939 19.5105 71.5752 20.6443 70.9377 21.6559C70.3004 22.6676 69.4353 23.4699 68.3426 24.0629C67.25 24.6385 66.0116 24.9262 64.6276 24.9262ZM64.6276 21.2896C65.2285 21.2896 65.7567 21.1675 66.212 20.9233C66.6672 20.6617 67.0133 20.3042 67.25 19.8507C67.5049 19.3798 67.6324 18.8477 67.6324 18.2547C67.6324 17.6617 67.5049 17.1472 67.25 16.7111C66.995 16.2576 66.6399 15.9088 66.1846 15.6646C65.7475 15.4029 65.2285 15.2722 64.6276 15.2722C64.0448 15.2722 63.5259 15.4029 63.0705 15.6646C62.6153 15.9088 62.2601 16.2576 62.0052 16.7111C61.7502 17.1646 61.6228 17.6879 61.6228 18.2809C61.6228 18.8565 61.7502 19.3798 62.0052 19.8507C62.2601 20.3042 62.6153 20.6617 63.0705 20.9233C63.5259 21.1675 64.0448 21.2896 64.6276 21.2896Z" fill="black"/>
<path fill-rule="evenodd" clip-rule="evenodd" d="M75.2039 29.6094C76.3148 30.0977 77.5987 30.3419 79.0556 30.3419C80.476 30.3419 81.7418 30.0716 82.8526 29.5309C83.9635 28.9902 84.8376 28.2402 85.475 27.2809C86.1123 26.3216 86.4315 25.1879 86.4315 23.8797V11.9233H82.3335V12.7776C82.0288 12.5319 81.6827 12.3257 81.2956 12.1588C80.5853 11.8274 79.7749 11.6616 78.8644 11.6616C77.6442 11.6616 76.5606 11.9407 75.6137 12.4988C74.6666 13.0395 73.92 13.7895 73.3737 14.7489C72.8273 15.6908 72.5542 16.7547 72.5542 17.9408C72.5542 19.1094 72.8273 20.1733 73.3737 21.1326C73.92 22.0919 74.6666 22.8507 75.6137 23.4088C76.5606 23.9669 77.6442 24.246 78.8644 24.246C79.7567 24.246 80.5671 24.0803 81.2956 23.7489C81.6484 23.5884 81.9671 23.3992 82.2516 23.1813V23.9844C82.2516 24.8739 81.9512 25.5629 81.3502 26.0513C80.7674 26.5397 79.9571 26.7838 78.919 26.7838C78.0813 26.7838 77.362 26.6443 76.761 26.3652C76.1782 26.0862 75.65 25.6762 75.1765 25.1355L72.6088 27.5948C73.2462 28.467 74.1113 29.1385 75.2039 29.6094ZM81.1589 20.3216C80.7401 20.5658 80.2393 20.6879 79.6565 20.6879C79.0738 20.6879 78.5638 20.5658 78.1268 20.3216C77.7079 20.0774 77.3801 19.746 77.1434 19.3274C76.9066 18.8913 76.7883 18.4291 76.7883 17.9408C76.7883 17.4175 76.9066 16.9466 77.1434 16.528C77.3801 16.1094 77.717 15.778 78.1541 15.5338C78.5912 15.2896 79.092 15.1675 79.6565 15.1675C80.2393 15.1675 80.7401 15.2896 81.1589 15.5338C81.596 15.778 81.9238 16.1094 82.1424 16.528C82.3791 16.9466 82.4975 17.4175 82.4975 17.9408C82.4975 18.464 82.3791 18.9349 82.1424 19.3535C81.9238 19.7547 81.596 20.0774 81.1589 20.3216Z" fill="black"/>
<path fill-rule="evenodd" clip-rule="evenodd" d="M95.2271 24.9262C93.8609 24.9262 92.6223 24.6385 91.5119 24.0629C90.4188 23.4699 89.554 22.6676 88.9166 21.6559C88.2792 20.6443 87.9604 19.5105 87.9604 18.2547C87.9604 16.9989 88.2792 15.8739 88.9166 14.8797C89.554 13.8855 90.4188 13.1006 91.5119 12.5251C92.6042 11.932 93.8429 11.6355 95.2271 11.6355C96.6105 11.6355 97.8492 11.9233 98.9414 12.4989C100.034 13.0745 100.899 13.8681 101.537 14.8797C102.174 15.8739 102.493 16.9989 102.493 18.2547C102.493 19.5105 102.174 20.6443 101.537 21.6559C100.899 22.6676 100.034 23.4699 98.9414 24.0629C97.8492 24.6385 96.6105 24.9262 95.2271 24.9262ZM95.2271 21.2896C95.8275 21.2896 96.3555 21.1675 96.8112 20.9233C97.266 20.6617 97.6123 20.3042 97.8492 19.8507C98.1041 19.3798 98.2316 18.8477 98.2316 18.2547C98.2316 17.6617 98.1041 17.1472 97.8492 16.7111C97.5942 16.2576 97.2393 15.9088 96.7836 15.6646C96.3469 15.4029 95.8275 15.2722 95.2271 15.2722C94.6439 15.2722 94.1245 15.4029 93.6697 15.6646C93.214 15.9088 92.8591 16.2576 92.6042 16.7111C92.3492 17.1646 92.2217 17.6879 92.2217 18.2809C92.2217 18.8565 92.3492 19.3798 92.6042 19.8507C92.8591 20.3042 93.214 20.6617 93.6697 20.9233C94.1245 21.1675 94.6439 21.2896 95.2271 21.2896Z" fill="black"/>
<path fill-rule="evenodd" clip-rule="evenodd" d="M118.252 24.9001C117.36 24.9001 116.54 24.7344 115.794 24.403C115.401 24.2286 115.046 24.0204 114.729 23.7783V30.0019H110.604V11.9233H114.783V12.8009C115.086 12.5633 115.423 12.358 115.794 12.1849C116.54 11.836 117.36 11.6616 118.252 11.6616C119.509 11.6616 120.62 11.9495 121.585 12.5251C122.568 13.1006 123.333 13.8855 123.879 14.8797C124.444 15.8739 124.726 17.0076 124.726 18.2808C124.726 19.5541 124.444 20.6879 123.879 21.6821C123.333 22.6763 122.568 23.4611 121.585 24.0367C120.62 24.6123 119.509 24.9001 118.252 24.9001ZM117.488 21.2896C118.088 21.2896 118.608 21.1588 119.044 20.8972C119.5 20.6356 119.855 20.2779 120.11 19.8245C120.365 19.371 120.492 18.8564 120.492 18.2808C120.492 17.6878 120.365 17.1646 120.11 16.7111C119.855 16.2576 119.5 15.9088 119.044 15.6646C118.608 15.4029 118.098 15.2722 117.515 15.2722C116.932 15.2722 116.413 15.4029 115.958 15.6646C115.52 15.9088 115.175 16.2576 114.92 16.7111C114.665 17.1646 114.538 17.6878 114.538 18.2808C114.538 18.8564 114.656 19.371 114.893 19.8245C115.148 20.2779 115.502 20.6356 115.958 20.8972C116.413 21.1588 116.923 21.2896 117.488 21.2896Z" fill="black"/>
<path d="M128.817 24.6646C129.582 24.8565 130.355 24.9524 131.138 24.9524C132.796 24.9524 134.107 24.5861 135.072 23.8535C136.055 23.121 136.547 22.1356 136.547 20.8972C136.547 20.0948 136.393 19.4495 136.083 18.9611C135.773 18.4553 135.373 18.0541 134.881 17.7576C134.389 17.4611 133.87 17.2256 133.324 17.0512C132.778 16.8768 132.258 16.7285 131.767 16.6064C131.275 16.4843 130.875 16.3448 130.565 16.1878C130.255 16.0308 130.1 15.8215 130.1 15.5599C130.1 15.3157 130.219 15.1326 130.455 15.0105C130.692 14.8709 131.047 14.8012 131.521 14.8012C132.013 14.8012 132.513 14.8971 133.023 15.089C133.551 15.2808 134.025 15.6123 134.443 16.0832L136.82 13.7809C136.22 13.0483 135.437 12.4988 134.471 12.1326C133.524 11.7489 132.486 11.557 131.357 11.557C130.283 11.557 129.345 11.7314 128.544 12.0802C127.742 12.4291 127.123 12.9088 126.686 13.5192C126.249 14.1122 126.03 14.8186 126.03 15.6384C126.03 16.4059 126.185 17.0425 126.495 17.5483C126.804 18.0366 127.205 18.4204 127.696 18.6994C128.188 18.9785 128.707 19.1966 129.254 19.3535C129.8 19.5105 130.319 19.6588 130.811 19.7983C131.302 19.9204 131.703 20.0687 132.013 20.2431C132.341 20.4001 132.504 20.6356 132.504 20.9495C132.504 21.1937 132.367 21.3855 132.094 21.5251C131.839 21.6646 131.466 21.7344 130.975 21.7344C130.264 21.7344 129.608 21.6123 129.008 21.3681C128.407 21.1065 127.887 20.7489 127.451 20.2954L125.074 22.5977C125.53 23.0686 126.076 23.4873 126.713 23.8535C127.369 24.2024 128.07 24.4727 128.817 24.6646Z" fill="black"/>
<path d="M144.168 24.9262C142.949 24.9262 141.865 24.6908 140.918 24.2199C139.989 23.7315 139.261 23.0687 138.733 22.2315C138.204 21.3769 137.941 20.4001 137.941 19.3012V11.9233H142.12V19.2489C142.12 19.6849 142.192 20.06 142.339 20.3739C142.503 20.6879 142.739 20.9321 143.049 21.1065C143.359 21.2809 143.732 21.3681 144.168 21.3681C144.788 21.3681 145.28 21.185 145.644 20.8187C146.008 20.4349 146.19 19.9117 146.19 19.2489V11.9233H150.37V19.2751C150.37 20.3914 150.106 21.3769 149.577 22.2315C149.049 23.0687 148.321 23.7315 147.392 24.2199C146.463 24.6908 145.389 24.9262 144.168 24.9262Z" fill="black"/>
<path d="M156.627 11.9233H152.447V24.6385H156.627V17.2082C156.627 16.7722 156.718 16.4059 156.9 16.1094C157.1 15.8129 157.365 15.5861 157.692 15.4291C158.02 15.2547 158.393 15.1675 158.812 15.1675C159.413 15.1675 159.914 15.3506 160.314 15.7169C160.734 16.0657 160.943 16.5629 160.943 17.2082V24.6385H165.123V17.2082C165.123 16.7722 165.214 16.4059 165.396 16.1094C165.596 15.8129 165.86 15.5861 166.188 15.4291C166.515 15.2547 166.889 15.1675 167.308 15.1675C167.909 15.1675 168.41 15.3506 168.81 15.7169C169.229 16.0657 169.438 16.5629 169.438 17.2082V24.6385H173.618V16.7634C173.618 15.6995 173.382 14.7925 172.908 14.0425C172.452 13.275 171.824 12.6907 171.023 12.2896C170.24 11.8709 169.338 11.6616 168.318 11.6616C167.28 11.6616 166.342 11.8797 165.505 12.3158C164.961 12.5935 164.485 12.9521 164.078 13.3913C163.698 12.9319 163.236 12.5559 162.691 12.2634C161.963 11.8623 161.134 11.6616 160.206 11.6616C159.222 11.6616 158.339 11.8623 157.556 12.2634C157.215 12.4303 156.906 12.6302 156.627 12.8631V11.9233Z" fill="black"/>
</g>
<defs>
<clipPath id="clip0_0_232">
<rect width="174" height="33" fill="white"/>
</clipPath>
</defs>
</svg>
