<svg width="159" height="127" viewBox="0 0 159 127" fill="none" xmlns="http://www.w3.org/2000/svg">
<path d="M141.675 66.6751C141.15 65.0876 140.625 63.5001 139.575 61.9126C141.15 58.7376 142.2 56.6209 141.15 51.8584C140.1 47.6251 136.95 42.8626 132.75 38.6292L123.825 33.8667L128.025 24.3417C130.125 20.1084 130.125 14.8167 127.5 11.1126C124.875 6.87923 120.15 4.2334 115.425 4.2334C110.175 4.2334 105.975 7.4084 103.35 12.1709C103.35 12.1709 99.15 11.1126 93.9 12.7001L87.075 19.0501C87.075 19.0501 78.15 21.6959 76.575 29.6334C75 37.5709 74.475 47.6251 72.375 51.3292C70.275 55.0334 59.25 68.7917 52.95 76.2001C48.225 82.0209 49.275 88.3709 53.475 93.1334L79.725 119.592C83.925 123.825 93.9 125.413 100.725 118.004C108.075 110.596 103.35 100.542 103.35 100.542C105.45 98.9542 111.225 94.1917 117 92.6042C122.775 91.0167 131.7 87.8417 136.425 81.4917C140.625 76.2001 142.725 71.9667 141.675 66.6751ZM92.85 110.596C90.75 112.713 87.6 112.713 85.5 110.596L63.45 88.3709C62.4 87.3126 61.875 86.2542 61.875 84.6667C61.875 83.0792 62.4 82.0209 63.45 80.9626L67.125 77.2584L92.85 103.188C93.9 104.246 94.425 105.304 94.425 106.892C94.425 108.479 93.9 109.538 92.85 110.596ZM127.5 58.2084C124.875 58.2084 123.825 55.5626 121.725 53.4459C119.625 51.3292 114.9 50.8001 111.225 52.3876C107.55 53.9751 105.975 57.6792 105.975 61.3834C105.975 66.6751 109.65 71.4376 114.9 71.4376C118.575 71.4376 119.625 70.9084 121.725 69.8501C124.875 67.7334 125.925 65.6167 128.025 65.6167C130.125 65.6167 131.7 66.6751 131.7 69.8501C131.7 73.0251 128.55 76.7292 125.4 78.8459C122.25 80.9626 119.625 81.4917 116.475 82.0209C113.325 82.5501 111.225 82.5501 107.025 85.1959C103.35 87.3126 99.675 89.9584 97.575 92.0751L73.425 67.7334C78.15 61.9126 82.35 55.5626 82.875 52.3876L86.55 31.7501C87.075 29.6334 88.65 29.1042 89.7 29.1042C91.275 29.1042 92.85 30.1626 93.375 31.2209L95.475 24.3417C96 22.7542 97.575 21.6959 98.625 21.6959C100.725 21.6959 102.825 23.2834 102.3 25.9292L99.675 38.6292C102.825 32.2792 107.55 24.3417 110.7 18.5209C111.75 16.9334 112.8 15.3459 115.425 15.3459C118.05 15.3459 120.15 18.5209 119.1 21.1667C118.05 23.2834 108.6 39.6876 104.4 46.5667C103.875 47.0959 104.4 47.6251 105.45 47.0959C107.025 46.0376 110.7 43.3917 114.375 43.3917C120.675 42.8626 123.825 45.5084 125.4 46.5667C127.5 48.1542 129.6 50.8001 131.175 53.4459C132.225 56.0917 130.125 58.2084 127.5 58.2084ZM126.45 61.9126C124.35 61.9126 122.775 62.4417 121.725 64.0292C120.675 65.6167 118.575 67.7334 115.95 67.7334C112.275 67.7334 110.175 65.0876 110.175 61.9126C110.175 58.7376 112.275 56.6209 115.95 56.6209C118.575 56.6209 120.675 58.7376 121.725 60.3251C122.775 61.9126 124.35 61.9126 126.45 61.9126Z" fill="white"/>
<path fill-rule="evenodd" clip-rule="evenodd" d="M10.2135 15.3736C10.0795 16.1142 10.381 16.8327 10.9353 17.2661C10.9679 17.3838 10.9985 17.5182 11.0324 17.6756L11.0442 17.7308C11.0599 17.804 11.0782 17.8896 11.095 17.963C11.1132 18.0423 11.1498 18.1994 11.2052 18.3573C11.4867 19.1592 11.7416 19.925 11.9523 20.6763C11.8968 20.686 11.8401 20.6958 11.7825 20.7058L11.7825 20.7058C10.9836 20.8447 9.99598 21.0163 9.14341 21.2864C8.97379 21.3401 8.8134 21.3984 8.69331 21.4421L8.69326 21.4422L8.69137 21.4428C8.55869 21.4911 8.47028 21.5232 8.38605 21.5505C8.27438 21.5866 8.22496 21.595 8.2144 21.5967C7.13743 21.6019 6.26599 22.4766 6.26599 23.5548C6.26599 24.6362 7.14268 25.5129 8.22412 25.5129C8.78358 25.5129 9.25952 25.384 9.59115 25.2767C9.74563 25.2267 9.89508 25.1723 10.0082 25.1312L10.0082 25.1311L10.0303 25.1231C10.158 25.0766 10.2453 25.0454 10.3259 25.0198C10.9288 24.8289 11.4574 24.7388 12.1065 24.6283L12.1065 24.6283C12.2424 24.6051 12.3835 24.5811 12.5318 24.555C12.5327 24.8039 12.5293 25.0601 12.5229 25.3244C12.5154 25.6336 12.5027 25.9759 12.4894 26.332L12.4894 26.332C12.4658 26.9655 12.4405 27.6424 12.4405 28.2542C12.4405 29.3356 13.3172 30.2123 14.3986 30.2123C15.4801 30.2123 16.3568 29.3356 16.3568 28.2542C16.3568 27.6964 16.3768 27.1732 16.3985 26.6085L16.3985 26.6084L16.3985 26.6083C16.4127 26.2371 16.4277 25.848 16.438 25.4191C16.4511 24.8791 16.4548 24.3108 16.4299 23.7296C17.6918 23.4588 18.8949 23.2354 20.0967 23.1592C21.176 23.0908 21.9955 22.1605 21.9271 21.0812C21.8587 20.0019 20.9284 19.1824 19.8491 19.2508C18.507 19.3358 17.1152 19.5835 15.7897 19.861C15.5316 18.9053 15.2245 17.9847 14.9137 17.098L14.9138 17.0981C14.9146 17.0979 14.9103 17.0782 14.8986 17.0246C14.8901 16.9861 14.8779 16.9303 14.861 16.8516C14.8185 16.6542 14.7536 16.3585 14.6615 16.0552C14.5748 15.7698 14.4294 15.3579 14.1792 14.9697C13.9417 14.6014 13.4175 13.9632 12.4888 13.7953C11.4247 13.6028 10.406 14.3095 10.2135 15.3736Z" fill="white"/>
<path fill-rule="evenodd" clip-rule="evenodd" d="M3.94749 35.7379C3.81355 36.4784 4.115 37.1969 4.66934 37.6303C4.70194 37.748 4.73252 37.8825 4.76639 38.0399L4.77822 38.0951C4.79389 38.1683 4.8122 38.2539 4.82902 38.3272C4.84721 38.4066 4.88379 38.5637 4.9392 38.7215C5.22072 39.5235 5.47565 40.2893 5.68631 41.0405C5.63078 41.0502 5.57413 41.0601 5.51651 41.0701L5.51651 41.0701C4.71765 41.2089 3.72999 41.3806 2.87741 41.6506C2.7078 41.7044 2.54741 41.7627 2.42732 41.8064L2.42727 41.8064L2.42538 41.8071C2.2927 41.8554 2.20429 41.8875 2.12005 41.9147C2.00839 41.9508 1.95897 41.9593 1.94841 41.9609C0.871438 41.9661 0 42.8408 0 43.919C0 45.0005 0.876686 45.8771 1.95813 45.8771C2.51759 45.8771 2.99353 45.7482 3.32516 45.641C3.47964 45.591 3.62909 45.5366 3.7422 45.4954L3.74222 45.4954L3.76431 45.4874C3.89202 45.4409 3.97935 45.4096 4.05996 45.3841C4.66279 45.1931 5.1914 45.1031 5.84051 44.9925L5.84053 44.9925C5.9764 44.9694 6.11755 44.9453 6.26576 44.9193C6.26674 45.1682 6.26333 45.4244 6.25694 45.6887C6.24946 45.9979 6.23669 46.3402 6.22341 46.6963L6.22341 46.6963C6.19978 47.3297 6.17453 48.0067 6.17453 48.6184C6.17453 49.6999 7.05121 50.5765 8.13265 50.5765C9.2141 50.5765 10.0908 49.6999 10.0908 48.6184C10.0908 48.0606 10.1108 47.5375 10.1325 46.9727L10.1325 46.9727L10.1325 46.9725C10.1467 46.6014 10.1617 46.2122 10.172 45.7834C10.1851 45.2433 10.1889 44.6751 10.164 44.0938C11.4258 43.823 12.6289 43.5996 13.8307 43.5235C14.91 43.4551 15.7295 42.5248 15.6611 41.4455C15.5927 40.3662 14.6624 39.5467 13.5831 39.6151C12.2411 39.7001 10.8492 39.9478 9.52372 40.2253C9.26565 39.2696 8.95851 38.3489 8.64769 37.4623L8.64785 37.4624C8.64864 37.4622 8.64433 37.4425 8.63257 37.3888C8.62415 37.3504 8.6119 37.2945 8.59498 37.2159C8.55249 37.0185 8.48762 36.7227 8.39548 36.4195C8.30877 36.1341 8.16346 35.7221 7.91323 35.334C7.67573 34.9656 7.15156 34.3275 6.22286 34.1595C5.15868 33.9671 4.13996 34.6737 3.94749 35.7379Z" fill="white"/>
<path fill-rule="evenodd" clip-rule="evenodd" d="M20.3957 41.2208C20.2618 41.9613 20.5632 42.6798 21.1176 43.1132C21.1502 43.2309 21.1808 43.3654 21.2146 43.5228L21.2265 43.578C21.2421 43.6512 21.2604 43.7368 21.2773 43.8101C21.2954 43.8895 21.332 44.0466 21.3874 44.2044C21.669 45.0064 21.9239 45.7722 22.1346 46.5234C22.079 46.5331 22.0224 46.543 21.9648 46.553L21.9647 46.553C21.1659 46.6918 20.1782 46.8635 19.3257 47.1335C19.156 47.1873 18.9956 47.2456 18.8756 47.2893L18.8755 47.2893L18.8736 47.29C18.7409 47.3383 18.6525 47.3704 18.5683 47.3976C18.4566 47.4338 18.4072 47.4422 18.3967 47.4438C17.3197 47.4491 16.4482 48.3237 16.4482 49.4019C16.4482 50.4834 17.3249 51.3601 18.4064 51.3601C18.9658 51.3601 19.4418 51.2311 19.7734 51.1239C19.9279 51.0739 20.0773 51.0195 20.1904 50.9783L20.1905 50.9783L20.2126 50.9703C20.3403 50.9238 20.4276 50.8925 20.5082 50.867C21.111 50.676 21.6396 50.586 22.2887 50.4754L22.2888 50.4754C22.4246 50.4523 22.5658 50.4283 22.714 50.4022C22.715 50.6511 22.7116 50.9073 22.7052 51.1716C22.6977 51.4808 22.6849 51.8231 22.6716 52.1792L22.6716 52.1792C22.648 52.8126 22.6228 53.4896 22.6228 54.1013C22.6228 55.1828 23.4995 56.0595 24.5809 56.0595C25.6623 56.0595 26.539 55.1828 26.539 54.1013C26.539 53.5435 26.5591 53.0204 26.5807 52.4556L26.5808 52.4556L26.5808 52.4554C26.595 52.0843 26.6099 51.6951 26.6203 51.2663C26.6334 50.7262 26.6371 50.158 26.6122 49.5767C27.8741 49.3059 29.0771 49.0825 30.2789 49.0064C31.3582 48.938 32.1777 48.0077 32.1094 46.9284C32.041 45.8491 31.1106 45.0296 30.0313 45.098C28.6893 45.183 27.2975 45.4307 25.972 45.7082C25.7139 44.7525 25.4068 43.8318 25.0959 42.9452L25.0961 42.9453C25.0969 42.9451 25.0926 42.9254 25.0808 42.8718C25.0724 42.8333 25.0601 42.7774 25.0432 42.6988C25.0007 42.5014 24.9359 42.2056 24.8437 41.9024C24.757 41.617 24.6117 41.205 24.3615 40.8169C24.124 40.4485 23.5998 39.8104 22.6711 39.6424C21.6069 39.45 20.5882 40.1566 20.3957 41.2208Z" fill="white"/>
</svg>
