<svg width="149" height="29" viewBox="0 0 149 29" fill="none" xmlns="http://www.w3.org/2000/svg">
<g clip-path="url(#clip0_0_256)">
<path d="M10.0425 23.968C7.17193 26.9542 2.31026 26.9423 0.952526 22.9624C0.686701 22.1832 0.474165 21.382 0.317845 20.5645C-0.320407 17.2265 0.0071671 13.7667 1.25915 10.6224C2.51112 7.4782 4.63127 4.79076 7.35148 2.89998C10.0717 1.0092 13.2698 -1.45785e-07 16.5414 0C19.813 1.45785e-07 23.0111 1.0092 25.7312 2.89998C28.4515 4.79076 30.5716 7.4782 31.8236 10.6225C33.0756 13.7667 33.4031 17.2265 32.7649 20.5645C32.6086 21.382 32.3961 22.1832 32.1302 22.9624C30.7724 26.9423 25.9108 26.9542 23.0402 23.968L18.609 19.3584C18.1857 18.918 18.2294 18.1917 18.3462 17.5809C18.4172 17.2096 18.3807 16.8247 18.2414 16.4749C18.1022 16.1251 17.8663 15.8261 17.5637 15.6158C17.2611 15.4055 16.9053 15.2932 16.5414 15.2932C16.1775 15.2932 15.8217 15.4055 15.5191 15.6158C15.2164 15.8261 14.9806 16.1251 14.8413 16.4749C14.702 16.8247 14.6655 17.2096 14.7366 17.5809C14.8534 18.1917 14.897 18.918 14.4737 19.3584L10.0425 23.968Z" fill="black"/>
<path d="M46.5404 19.8367H50.9866V22.5624H43.1461V8.06683H46.5404V19.8367Z" fill="black"/>
<path d="M57.052 22.7276C55.9669 22.7276 54.9876 22.4867 54.1142 22.0049C53.2541 21.5231 52.5726 20.8348 52.0697 19.94C51.5801 19.0452 51.3353 17.999 51.3353 16.8013C51.3353 15.6175 51.5867 14.5781 52.0895 13.6833C52.5925 12.7748 53.2806 12.0796 54.1539 11.5978C55.0273 11.116 56.0066 10.8751 57.0917 10.8751C58.1768 10.8751 59.1561 11.116 60.0294 11.5978C60.9028 12.0796 61.5909 12.7748 62.0938 13.6833C62.5966 14.5781 62.8481 15.6175 62.8481 16.8013C62.8481 17.9852 62.59 19.0314 62.074 19.94C61.5711 20.8348 60.8764 21.5231 59.9897 22.0049C59.1164 22.4867 58.1371 22.7276 57.052 22.7276ZM57.052 19.6715C57.7004 19.6715 58.2496 19.4238 58.6996 18.9282C59.1627 18.4326 59.3943 17.7237 59.3943 16.8013C59.3943 15.879 59.1692 15.1701 58.7194 14.6745C58.2826 14.1789 57.7401 13.9311 57.0917 13.9311C56.43 13.9311 55.8809 14.1789 55.4441 14.6745C55.0074 15.1563 54.7891 15.8652 54.7891 16.8013C54.7891 17.7237 55.0009 18.4326 55.4243 18.9282C55.8611 19.4238 56.4036 19.6715 57.052 19.6715Z" fill="black"/>
<path d="M68.2614 10.8751C69.0422 10.8751 69.7237 11.0403 70.306 11.3707C70.9014 11.701 71.358 12.1347 71.6756 12.6715V11.0403H75.0698V22.5417C75.0698 23.6017 74.8648 24.5585 74.4545 25.4119C74.0575 26.2792 73.4422 26.9675 72.6086 27.4768C71.7881 27.9862 70.7625 28.2409 69.5319 28.2409C67.8909 28.2409 66.561 27.8348 65.542 27.0226C64.5231 26.2241 63.9408 25.1366 63.7953 23.76H67.1499C67.2557 24.2005 67.5072 24.5447 67.9042 24.7925C68.3011 25.054 68.7908 25.1848 69.3731 25.1848C70.0744 25.1848 70.6301 24.9714 71.0404 24.5447C71.4639 24.1317 71.6756 23.4641 71.6756 22.5417V20.9105C71.3448 21.4473 70.8882 21.8879 70.306 22.232C69.7237 22.5624 69.0422 22.7276 68.2614 22.7276C67.3484 22.7276 66.5213 22.4867 65.7802 22.0049C65.0392 21.5093 64.4503 20.8141 64.0137 19.9193C63.5902 19.0108 63.3784 17.9646 63.3784 16.7807C63.3784 15.5968 63.5902 14.5575 64.0137 13.6627C64.4503 12.7679 65.0392 12.0796 65.7802 11.5978C66.5213 11.116 67.3484 10.8751 68.2614 10.8751ZM71.6756 16.8013C71.6756 15.9203 71.4374 15.2251 70.961 14.7158C70.4979 14.2065 69.9288 13.9518 69.2539 13.9518C68.579 13.9518 68.0034 14.2065 67.527 14.7158C67.0638 15.2114 66.8323 15.8997 66.8323 16.7807C66.8323 17.6617 67.0638 18.3638 67.527 18.8869C68.0034 19.3962 68.579 19.6509 69.2539 19.6509C69.9288 19.6509 70.4979 19.3962 70.961 18.8869C71.4374 18.3775 71.6756 17.6824 71.6756 16.8013Z" fill="black"/>
<path d="M81.9718 22.7276C80.8867 22.7276 79.9075 22.4867 79.0341 22.0049C78.174 21.5231 77.4924 20.8348 76.9896 19.94C76.5 19.0452 76.2551 17.999 76.2551 16.8013C76.2551 15.6175 76.5065 14.5781 77.0095 13.6833C77.5123 12.7748 78.2004 12.0796 79.0737 11.5978C79.9472 11.116 80.9264 10.8751 82.0115 10.8751C83.0966 10.8751 84.0759 11.116 84.9492 11.5978C85.8227 12.0796 86.5108 12.7748 87.0136 13.6833C87.5165 14.5781 87.7679 15.6175 87.7679 16.8013C87.7679 17.9852 87.5099 19.0314 86.9938 19.94C86.491 20.8348 85.7962 21.5231 84.9095 22.0049C84.0362 22.4867 83.0569 22.7276 81.9718 22.7276ZM81.9718 19.6715C82.6202 19.6715 83.1694 19.4238 83.6194 18.9282C84.0825 18.4326 84.3141 17.7237 84.3141 16.8013C84.3141 15.879 84.0891 15.1701 83.6392 14.6745C83.2025 14.1789 82.6599 13.9311 82.0115 13.9311C81.3499 13.9311 80.8007 14.1789 80.364 14.6745C79.9274 15.1563 79.709 15.8652 79.709 16.8013C79.709 17.7237 79.9207 18.4326 80.3442 18.9282C80.7809 19.4238 81.3234 19.6715 81.9718 19.6715Z" fill="black"/>
<path d="M90.6802 9.84264C90.0847 9.84264 89.5951 9.66368 89.2114 9.30577C88.8408 8.93409 88.6556 8.47981 88.6556 7.94294C88.6556 7.3923 88.8408 6.93802 89.2114 6.5801C89.5951 6.20842 90.0847 6.02258 90.6802 6.02258C91.2625 6.02258 91.7389 6.20842 92.1094 6.5801C92.4931 6.93802 92.685 7.3923 92.685 7.94294C92.685 8.47981 92.4931 8.93409 92.1094 9.30577C91.7389 9.66368 91.2625 9.84264 90.6802 9.84264ZM92.3674 11.0403V22.5624H88.9732V11.0403H92.3674Z" fill="black"/>
<path d="M97.6258 12.6715C97.9565 12.1347 98.4131 11.701 98.9956 11.3707C99.5782 11.0403 100.26 10.8751 101.04 10.8751C101.954 10.8751 102.78 11.116 103.521 11.5978C104.263 12.0796 104.845 12.7679 105.268 13.6627C105.704 14.5575 105.924 15.5968 105.924 16.7807C105.924 17.9646 105.704 19.0108 105.268 19.9193C104.845 20.8141 104.263 21.5093 103.521 22.0049C102.78 22.4867 101.954 22.7276 101.04 22.7276C100.272 22.7276 99.5916 22.5624 98.9956 22.232C98.4131 21.9016 97.9565 21.4749 97.6258 20.9518V28.055H94.2318V11.0403H97.6258V12.6715ZM102.47 16.7807C102.47 15.8997 102.231 15.2114 101.755 14.7158C101.291 14.2065 100.716 13.9518 100.028 13.9518C99.3532 13.9518 98.7774 14.2065 98.3006 14.7158C97.8382 15.2251 97.6066 15.9203 97.6066 16.8013C97.6066 17.6824 97.8382 18.3775 98.3006 18.8869C98.7774 19.3962 99.3532 19.6509 100.028 19.6509C100.703 19.6509 101.279 19.3962 101.755 18.8869C102.231 18.3638 102.47 17.6617 102.47 16.7807Z" fill="black"/>
<path d="M111.614 22.7276C110.648 22.7276 109.788 22.5555 109.033 22.2114C108.28 21.8672 107.684 21.3992 107.247 20.8072C106.811 20.2015 106.566 19.527 106.513 18.7836H109.868C109.907 19.1828 110.086 19.5063 110.403 19.7541C110.721 20.0019 111.112 20.1258 111.575 20.1258C111.998 20.1258 112.322 20.0432 112.547 19.878C112.785 19.6991 112.904 19.4719 112.904 19.1966C112.904 18.8662 112.739 18.6253 112.408 18.4739C112.078 18.3087 111.541 18.1298 110.8 17.937C110.006 17.7443 109.345 17.5447 108.815 17.3382C108.286 17.118 107.83 16.7807 107.446 16.3264C107.062 15.8584 106.87 15.232 106.87 14.4474C106.87 13.7866 107.043 13.1878 107.387 12.6509C107.743 12.1003 108.26 11.6666 108.934 11.35C109.623 11.0334 110.437 10.8751 111.376 10.8751C112.765 10.8751 113.857 11.233 114.651 11.9488C115.459 12.6647 115.922 13.6145 116.041 14.7984H112.904C112.852 14.3992 112.68 14.0826 112.388 13.8485C112.11 13.6145 111.74 13.4975 111.277 13.4975C110.88 13.4975 110.575 13.5801 110.364 13.7453C110.152 13.8967 110.047 14.1101 110.047 14.3854C110.047 14.7158 110.212 14.9636 110.543 15.1288C110.887 15.294 111.415 15.4592 112.131 15.6243C112.951 15.8446 113.619 16.0649 114.135 16.2851C114.651 16.4916 115.101 16.8357 115.485 17.3176C115.882 17.7856 116.087 18.4188 116.101 19.2173C116.101 19.8918 115.915 20.4975 115.544 21.0344C115.188 21.5575 114.665 21.9705 113.976 22.2733C113.302 22.5762 112.514 22.7276 111.614 22.7276Z" fill="black"/>
<path d="M128.519 11.0403V22.5624H125.124V20.9931C124.78 21.5024 124.31 21.9154 123.715 22.232C123.133 22.5349 122.485 22.6863 121.77 22.6863C120.923 22.6863 120.175 22.4936 119.527 22.1081C118.878 21.7089 118.375 21.1376 118.019 20.3943C117.661 19.6509 117.482 18.7768 117.482 17.7718V11.0403H120.856V17.2969C120.856 18.0678 121.049 18.6666 121.432 19.0934C121.816 19.5201 122.332 19.7335 122.981 19.7335C123.642 19.7335 124.165 19.5201 124.549 19.0934C124.932 18.6666 125.124 18.0678 125.124 17.2969V11.0403H128.519Z" fill="black"/>
<path d="M144.494 10.9164C145.87 10.9164 146.962 11.35 147.77 12.2173C148.59 13.0845 149 14.289 149 15.8308V22.5624H145.626V16.3058C145.626 15.5624 145.434 14.9911 145.05 14.5919C144.679 14.1789 144.164 13.9724 143.501 13.9724C142.84 13.9724 142.317 14.1789 141.934 14.5919C141.563 14.9911 141.378 15.5624 141.378 16.3058V22.5624H138.003V16.3058C138.003 15.5624 137.812 14.9911 137.428 14.5919C137.057 14.1789 136.541 13.9724 135.879 13.9724C135.218 13.9724 134.695 14.1789 134.311 14.5919C133.94 14.9911 133.756 15.5624 133.756 16.3058V22.5624H130.362V11.0403H133.756V12.4857C134.1 12.0039 134.55 11.6253 135.106 11.35C135.661 11.0609 136.29 10.9164 136.991 10.9164C137.825 10.9164 138.566 11.1022 139.214 11.4739C139.875 11.8456 140.392 12.3756 140.763 13.0639C141.146 12.4306 141.669 11.9144 142.331 11.5152C142.992 11.116 143.714 10.9164 144.494 10.9164Z" fill="black"/>
</g>
<defs>
<clipPath id="clip0_0_256">
<rect width="149" height="29" fill="white"/>
</clipPath>
</defs>
</svg>
