<svg width="154" height="41" viewBox="0 0 154 41" fill="none" xmlns="http://www.w3.org/2000/svg">
<path d="M52.3017 29.5255C51.6077 29.5634 50.9214 29.3653 50.3533 28.9632C50.116 28.7866 49.925 28.5545 49.7969 28.2872C49.6688 28.0198 49.6076 27.7252 49.6183 27.4287V16.5695C49.6127 16.5236 49.6175 16.4769 49.6326 16.4331C49.6475 16.3892 49.6722 16.3495 49.7049 16.3167C49.7376 16.2839 49.7771 16.2591 49.8207 16.2441C49.8644 16.229 49.9109 16.2242 49.9567 16.2298H51.9167C52.1383 16.2298 52.2433 16.347 52.2433 16.5695V26.5852C52.2433 27.0304 52.4417 27.253 52.85 27.253C53.0231 27.2601 53.1963 27.2404 53.3633 27.1944C53.5967 27.1944 53.725 27.2647 53.7367 27.4755L53.9117 28.9398C53.9201 28.9826 53.9192 29.0265 53.9093 29.0689C53.8994 29.1112 53.8805 29.151 53.8539 29.1853C53.8274 29.2198 53.7938 29.2481 53.7556 29.2684C53.7172 29.2887 53.6749 29.3005 53.6317 29.303C53.2023 29.4454 52.7537 29.5205 52.3017 29.5255Z" fill="black"/>
<path d="M63.3267 28.2721C62.3419 29.0891 61.1042 29.536 59.8267 29.536C58.5492 29.536 57.3116 29.0891 56.3267 28.2721C55.4611 27.3947 54.9754 26.2095 54.9754 24.9745C54.9754 23.7395 55.4611 22.5543 56.3267 21.6769C57.3134 20.8641 58.5503 20.4199 59.8267 20.4199C61.103 20.4199 62.3399 20.8641 63.3267 21.6769C64.1724 22.5624 64.6445 23.7418 64.6445 24.9686C64.6445 26.1955 64.1724 27.3749 63.3267 28.2603V28.2721ZM58.17 26.7258C58.6271 27.1415 59.2216 27.3717 59.8383 27.3717C60.455 27.3717 61.0497 27.1415 61.5067 26.7258C61.9204 26.2483 62.1481 25.6367 62.1481 25.0038C62.1481 24.371 61.9204 23.7594 61.5067 23.2818C61.0497 22.8662 60.455 22.6359 59.8383 22.6359C59.2216 22.6359 58.6271 22.8662 58.17 23.2818C57.7564 23.7594 57.5286 24.371 57.5286 25.0038C57.5286 25.6367 57.7564 26.2483 58.17 26.7258Z" fill="black"/>
<path d="M75.4367 20.7164C75.6583 20.7164 75.7633 20.8335 75.7633 21.0561V29.4552C75.7838 30.0222 75.678 30.5865 75.454 31.1072C75.23 31.628 74.8934 32.0921 74.4683 32.4658C73.525 33.2735 72.3119 33.692 71.0733 33.6372C69.9547 33.6767 68.8509 33.37 67.9117 32.7587C67.5106 32.4943 67.1679 32.1497 66.9051 31.7468C66.6421 31.3437 66.4645 30.8907 66.3833 30.4158C66.3833 30.1815 66.3833 30.0761 66.6983 30.0761H68.6583C68.7415 30.0789 68.8222 30.106 68.8905 30.1537C68.9589 30.2015 69.012 30.2681 69.0433 30.3455C69.1705 30.7013 69.4239 30.9975 69.755 31.1772C70.1586 31.3863 70.6077 31.4911 71.0617 31.4818C71.3356 31.4969 71.6098 31.457 71.8682 31.3644C72.1266 31.272 72.364 31.1286 72.5667 30.9429C72.7518 30.7487 72.8958 30.5188 72.9901 30.2671C73.0843 30.0155 73.1268 29.7473 73.115 29.4787V28.7407C72.4132 29.2589 71.5591 29.5269 70.6883 29.5021C70.0789 29.5243 69.4713 29.4228 68.9018 29.2034C68.3325 28.9838 67.8132 28.6513 67.375 28.2252C66.5339 27.3516 66.0638 26.1839 66.0638 24.9687C66.0638 23.7535 66.5339 22.5859 67.375 21.7121C67.8153 21.2899 68.3353 20.9605 68.9043 20.7432C69.4734 20.5259 70.0799 20.4252 70.6883 20.4469C71.5843 20.4232 72.4614 20.7085 73.1733 21.2552V21.0678C73.168 21.0229 73.1726 20.9774 73.187 20.9345C73.2013 20.8917 73.225 20.8526 73.2563 20.82C73.2875 20.7875 73.3257 20.7624 73.3678 20.7465C73.41 20.7305 73.4552 20.7243 73.5 20.7281L75.4367 20.7164ZM70.91 27.4169C71.2105 27.4263 71.5096 27.3693 71.7857 27.2498C72.0619 27.1304 72.3086 26.9515 72.5083 26.7258C72.8963 26.2229 73.1067 25.6047 73.1067 24.9687C73.1067 24.3326 72.8963 23.7145 72.5083 23.2115C72.3093 22.9889 72.0641 22.8126 71.79 22.6953C71.5159 22.5779 71.2195 22.5222 70.9217 22.5321C70.6176 22.5225 70.3152 22.5793 70.0352 22.6987C69.7552 22.818 69.5044 22.997 69.3 23.2232C68.8703 23.7043 68.6443 24.3347 68.67 24.9804C68.649 25.6197 68.87 26.2434 69.2883 26.7258C69.4932 26.9514 69.7441 27.1301 70.024 27.2493C70.3039 27.3686 70.6061 27.4257 70.91 27.4169Z" fill="black"/>
<path d="M85.8317 28.2721C84.8449 29.0849 83.608 29.5291 82.3317 29.5291C81.0553 29.5291 79.8184 29.0849 78.8317 28.2721C77.9853 27.3846 77.5128 26.2033 77.5128 24.9745C77.5128 23.7458 77.9853 22.5644 78.8317 21.6769C79.8194 20.8662 81.0559 20.4233 82.3317 20.4233C83.6074 20.4233 84.844 20.8662 85.8317 21.6769C86.6774 22.5624 87.1495 23.7418 87.1495 24.9687C87.1495 26.1955 86.6774 27.3749 85.8317 28.2604V28.2721ZM80.6633 26.7258C80.887 26.9395 81.1507 27.1064 81.4391 27.217C81.7275 27.3276 82.0348 27.3797 82.3433 27.3701C82.6499 27.3781 82.9551 27.3253 83.2414 27.2148C83.5277 27.1042 83.7894 26.9381 84.0117 26.7258C84.4186 26.245 84.642 25.6347 84.642 25.0038C84.642 24.3729 84.4186 23.7626 84.0117 23.2818C83.7894 23.0697 83.5277 22.9034 83.2414 22.793C82.9551 22.6824 82.6499 22.6295 82.3433 22.6375C82.0348 22.628 81.7275 22.68 81.4391 22.7906C81.1507 22.9012 80.887 23.0682 80.6633 23.2818C80.2565 23.7626 80.0331 24.3729 80.0331 25.0038C80.0331 25.6347 80.2565 26.245 80.6633 26.7258Z" fill="black"/>
<path d="M91.3617 18.7249C91.0533 18.996 90.6574 19.1453 90.2475 19.1453C89.8377 19.1453 89.4418 18.996 89.1333 18.7249C88.9936 18.5924 88.8821 18.4327 88.806 18.2554C88.7299 18.0782 88.6906 17.8871 88.6906 17.6941C88.6906 17.501 88.7299 17.3101 88.806 17.1327C88.8821 16.9555 88.9936 16.7957 89.1333 16.6632C89.445 16.3989 89.8396 16.254 90.2475 16.254C90.6554 16.254 91.05 16.3989 91.3617 16.6632C91.5015 16.7957 91.613 16.9555 91.689 17.1327C91.7652 17.3101 91.8044 17.501 91.8044 17.6941C91.8044 17.8871 91.7652 18.0782 91.689 18.2554C91.613 18.4327 91.5015 18.5924 91.3617 18.7249ZM91.6067 29.5255C90.9132 29.5597 90.228 29.362 89.6583 28.9632C89.4246 28.784 89.2369 28.5511 89.1112 28.2841C88.9853 28.0172 88.9249 27.7238 88.935 27.4286V21.0561C88.9294 21.0101 88.9342 20.9634 88.9492 20.9196C88.9642 20.8758 88.9889 20.8361 89.0216 20.8033C89.0542 20.7705 89.0938 20.7456 89.1374 20.7306C89.1811 20.7155 89.2276 20.7107 89.2733 20.7164H91.2333C91.455 20.7164 91.56 20.8335 91.56 21.0561V26.5852C91.56 27.0304 91.7583 27.2529 92.155 27.2529C92.332 27.2594 92.5089 27.2396 92.68 27.1944C92.9133 27.1944 93.0417 27.2646 93.0533 27.4755L93.2283 28.9398C93.2367 28.9825 93.2359 29.0265 93.226 29.0689C93.2161 29.1112 93.1972 29.151 93.1706 29.1853C93.1441 29.2198 93.1105 29.2481 93.0722 29.2684C93.0338 29.2886 92.9916 29.3005 92.9483 29.3029C92.5153 29.4462 92.0627 29.5213 91.6067 29.5255Z" fill="black"/>
<path d="M100.438 20.4352C101.051 20.411 101.661 20.5104 102.235 20.7277C102.808 20.9451 103.332 21.2758 103.775 21.7003C104.6 22.5895 105.059 23.7594 105.059 24.9745C105.059 26.1896 104.6 27.3596 103.775 28.2486C103.334 28.677 102.811 29.011 102.237 29.2304C101.663 29.4499 101.052 29.5503 100.438 29.5255C99.5647 29.5451 98.7085 29.2777 98 28.7641V32.9929C98 33.2155 97.8833 33.3209 97.6617 33.3209H95.7017C95.657 33.3294 95.6109 33.3267 95.5674 33.3132C95.524 33.2996 95.4844 33.2757 95.4522 33.2434C95.4201 33.211 95.3962 33.1714 95.3828 33.1277C95.3693 33.0842 95.3667 33.0379 95.375 32.9929V23.3872C95.3888 23.2933 95.3804 23.1974 95.3507 23.1072C95.321 23.0171 95.2706 22.9351 95.2037 22.868C95.1369 22.8009 95.0553 22.7504 94.9655 22.7205C94.8758 22.6907 94.7802 22.6824 94.6867 22.6961H94.3017C94.045 22.6961 93.9167 22.6023 93.9167 22.4149V21.0326C93.9106 20.9471 93.9339 20.8621 93.9828 20.7918C94.0316 20.7214 94.103 20.67 94.185 20.6461C94.5885 20.4988 95.0157 20.4274 95.445 20.4352C95.8732 20.3971 96.3028 20.4884 96.6791 20.697C97.0552 20.9058 97.3609 21.2225 97.5567 21.6066C97.9324 21.225 98.3818 20.9243 98.8773 20.7228C99.3728 20.5214 99.904 20.4235 100.438 20.4352ZM98.6183 26.7258C98.8263 26.9441 99.0762 27.1179 99.353 27.2365C99.6297 27.3552 99.9274 27.4163 100.228 27.4163C100.529 27.4163 100.827 27.3552 101.104 27.2365C101.38 27.1179 101.63 26.9441 101.838 26.7258C102.277 26.2351 102.507 25.5921 102.48 24.9335C102.511 24.2744 102.28 23.6299 101.838 23.1412C101.63 22.923 101.38 22.7492 101.104 22.6306C100.827 22.5118 100.529 22.4506 100.228 22.4506C99.9274 22.4506 99.6297 22.5118 99.353 22.6306C99.0762 22.7492 98.8263 22.923 98.6183 23.1412C98.1939 23.6386 97.9729 24.279 98 24.9335C97.9763 25.5875 98.1969 26.2267 98.6183 26.7258Z" fill="black"/>
<path d="M110.565 29.5255C109.518 29.5688 108.479 29.3172 107.567 28.7992C107.201 28.5778 106.889 28.2764 106.654 27.9175C106.42 27.5586 106.269 27.1513 106.213 26.7258C106.213 26.4915 106.295 26.3744 106.552 26.3744H108.267C108.348 26.3777 108.427 26.4033 108.495 26.4489C108.563 26.4943 108.617 26.5577 108.652 26.6321C108.897 27.2647 109.538 27.581 110.565 27.581C110.923 27.5975 111.28 27.525 111.603 27.3701C111.715 27.3195 111.811 27.2394 111.881 27.1383C111.951 27.0372 111.992 26.9189 112 26.7961C112 26.4915 111.813 26.2807 111.44 26.1401C110.997 25.9921 110.539 25.8939 110.075 25.8472C109.525 25.7847 108.979 25.6869 108.442 25.5544C107.919 25.4356 107.443 25.1622 107.077 24.7695C106.861 24.5027 106.702 24.194 106.61 23.8628C106.518 23.5317 106.494 23.1849 106.541 22.8444C106.589 22.5037 106.705 22.1765 106.883 21.883C107.062 21.5894 107.298 21.336 107.578 21.1381C108.419 20.6003 109.406 20.3382 110.402 20.3884C111.366 20.3557 112.32 20.5951 113.155 21.0795C113.492 21.2711 113.782 21.5354 114.004 21.8536C114.226 22.1718 114.374 22.5356 114.438 22.9187C114.438 23.153 114.333 23.2701 114.123 23.2701H112.397C112.324 23.2744 112.252 23.2566 112.189 23.219C112.127 23.1814 112.077 23.1257 112.047 23.0592C111.931 22.7818 111.714 22.5595 111.44 22.4384C111.131 22.276 110.786 22.1953 110.437 22.2041C110.095 22.1855 109.754 22.254 109.445 22.4032C109.336 22.4454 109.243 22.5192 109.176 22.6153C109.11 22.7113 109.073 22.8252 109.072 22.9421C109.079 23.1023 109.138 23.2559 109.238 23.3803C109.339 23.5047 109.477 23.5933 109.632 23.6332C110.08 23.8029 110.546 23.9207 111.02 23.9847C111.566 24.0568 112.107 24.1585 112.642 24.2892C113.165 24.4081 113.64 24.6814 114.007 25.0741C114.203 25.2905 114.354 25.5436 114.452 25.8191C114.551 26.0945 114.593 26.3868 114.578 26.679C114.588 27.0839 114.494 27.4845 114.304 27.8418C114.113 28.199 113.834 28.5006 113.493 28.7172C112.622 29.2792 111.6 29.561 110.565 29.5255Z" fill="black"/>
<path d="M126.91 28.9398C126.917 28.9814 126.915 29.0239 126.905 29.0648C126.895 29.1058 126.877 29.1442 126.852 29.1781C126.827 29.2119 126.796 29.2404 126.759 29.2618C126.723 29.2833 126.684 29.2972 126.642 29.3029C126.216 29.4426 125.771 29.5177 125.323 29.5255C124.88 29.5717 124.432 29.5021 124.024 29.3236C123.614 29.145 123.258 28.8635 122.99 28.5064C122.166 29.2178 121.1 29.5828 120.015 29.5255C119.511 29.5488 119.008 29.466 118.538 29.2824C118.068 29.0989 117.641 28.8186 117.285 28.4595C116.931 28.0834 116.658 27.6394 116.479 27.1543C116.301 26.6692 116.222 26.153 116.247 25.6364V21.0561C116.247 20.8335 116.352 20.7164 116.573 20.7164H118.533C118.755 20.7164 118.86 20.8335 118.86 21.0561V25.2849C118.839 25.8118 119.017 26.327 119.362 26.7258C119.533 26.9085 119.742 27.0522 119.973 27.1472C120.204 27.2422 120.454 27.2862 120.703 27.2764C120.959 27.2876 121.214 27.2479 121.455 27.1593C121.695 27.0709 121.916 26.9355 122.103 26.7609C122.281 26.577 122.419 26.3584 122.509 26.1186C122.6 25.8789 122.64 25.623 122.628 25.3669V21.0561C122.628 20.8335 122.733 20.7164 122.955 20.7164H124.938C125.16 20.7164 125.265 20.8335 125.265 21.0561V26.5735C125.265 27.0304 125.463 27.2529 125.848 27.2529C126.029 27.26 126.21 27.2403 126.385 27.1944C126.429 27.182 126.476 27.1797 126.52 27.1879C126.566 27.196 126.608 27.2143 126.645 27.2413C126.682 27.2684 126.713 27.3035 126.735 27.3441C126.756 27.3846 126.768 27.4296 126.77 27.4755L126.91 28.9398Z" fill="black"/>
<path d="M145.448 28.9398C145.459 28.9817 145.46 29.0256 145.452 29.068C145.443 29.1103 145.425 29.1503 145.399 29.185C145.374 29.2197 145.341 29.2482 145.303 29.2686C145.265 29.2891 145.223 29.3008 145.18 29.3029C144.746 29.4446 144.295 29.5197 143.838 29.5255C143.144 29.5615 142.459 29.3636 141.89 28.9632C141.644 28.7917 141.444 28.562 141.308 28.2943C141.171 28.0267 141.103 27.7293 141.108 27.4287V24.6758C141.133 24.1505 140.958 23.6355 140.618 23.2349C140.455 23.0519 140.252 22.9075 140.027 22.8123C139.801 22.7172 139.557 22.6735 139.312 22.6844C139.091 22.6761 138.872 22.7181 138.669 22.8074C138.467 22.8966 138.289 23.0309 138.145 23.1998C137.837 23.5924 137.68 24.0829 137.702 24.5821V28.9047C137.702 29.1272 137.597 29.2444 137.375 29.2444H135.403C135.358 29.2501 135.311 29.2452 135.268 29.2302C135.224 29.2151 135.184 29.1903 135.151 29.1575C135.119 29.1248 135.094 29.0849 135.079 29.0411C135.064 28.9973 135.059 28.9507 135.065 28.9047V24.6758C135.091 24.1563 134.929 23.6448 134.61 23.2349C134.468 23.0627 134.289 22.9242 134.087 22.829C133.887 22.7339 133.666 22.6845 133.443 22.6844C133.205 22.6748 132.969 22.7157 132.747 22.8046C132.525 22.8934 132.326 23.0281 132.16 23.1998C131.826 23.5798 131.655 24.0763 131.682 24.5821V28.9047C131.688 28.9507 131.683 28.9973 131.668 29.0411C131.653 29.0849 131.628 29.1248 131.595 29.1575C131.563 29.1903 131.523 29.2151 131.48 29.2302C131.436 29.2452 131.389 29.2501 131.343 29.2444H129.442C129.22 29.2444 129.115 29.1272 129.115 28.9047V23.3872C129.129 23.2933 129.121 23.1975 129.091 23.1073C129.061 23.0172 129.011 22.9352 128.944 22.8681C128.877 22.8009 128.795 22.7504 128.706 22.7206C128.616 22.6907 128.52 22.6824 128.427 22.6961H128.042C127.785 22.6961 127.657 22.6024 127.657 22.415V21.0327C127.651 20.9472 127.674 20.8621 127.723 20.7918C127.772 20.7214 127.843 20.67 127.925 20.6461C128.329 20.4988 128.756 20.4274 129.185 20.4352C129.597 20.4 130.011 20.4824 130.379 20.6732C130.746 20.8639 131.052 21.155 131.262 21.513C131.655 21.1384 132.122 20.8493 132.631 20.6639C133.141 20.4785 133.684 20.4007 134.225 20.4352C134.751 20.4095 135.275 20.5085 135.756 20.7242C136.236 20.94 136.659 21.2664 136.99 21.6769C137.376 21.2556 137.851 20.9257 138.38 20.7109C138.908 20.4962 139.477 20.4021 140.047 20.4352C140.555 20.4113 141.064 20.4937 141.54 20.6773C142.016 20.8607 142.449 21.1413 142.812 21.5012C143.166 21.8767 143.441 22.3205 143.619 22.8059C143.798 23.2911 143.877 23.8078 143.85 24.3244V26.5852C143.85 27.0304 144.048 27.2529 144.422 27.2529C144.603 27.2614 144.783 27.2417 144.958 27.1944C145.2 27.1944 145.328 27.2881 145.343 27.4755L145.448 28.9398Z" fill="black"/>
<path d="M8.645 19.1935C9.50573 15.7199 11.4992 12.6351 14.3079 10.4307C17.1166 8.22616 20.5792 7.02856 24.1442 7.02856C27.7091 7.02856 31.1717 8.22616 33.9804 10.4307C36.7892 12.6351 38.7826 15.7199 39.6433 19.1935H38.2433C35.8816 19.1586 33.5684 19.8673 31.6283 21.2201C31.5163 21.3015 31.3994 21.3759 31.2783 21.4426H31.115C30.9939 21.3759 30.877 21.3015 30.765 21.2201C28.8078 19.8986 26.5027 19.1928 24.1442 19.1928C21.7856 19.1928 19.4805 19.8986 17.5233 21.2201C17.4113 21.3015 17.2944 21.3759 17.1733 21.4426H17.01C16.8889 21.3759 16.772 21.3015 16.66 21.2201C14.7199 19.8673 12.4067 19.1586 10.045 19.1935H8.645ZM35.7233 26.5384C36.442 25.9764 37.3327 25.6824 38.2433 25.7066H40.1217V21.9464H38.2433C36.6394 21.9269 35.0722 22.4282 33.775 23.3755C33.045 23.9159 32.162 24.2074 31.255 24.2074C30.348 24.2074 29.465 23.9159 28.735 23.3755C27.4049 22.4459 25.8231 21.9474 24.2025 21.9474C22.5819 21.9474 21.0001 22.4459 19.67 23.3755C18.94 23.9159 18.057 24.2074 17.15 24.2074C16.243 24.2074 15.36 23.9159 14.63 23.3755C13.3168 22.416 11.7271 21.9141 10.1033 21.9464H8.16666V25.7066H10.045C10.9556 25.6824 11.8463 25.9764 12.565 26.5384C13.8927 27.4687 15.4727 27.9675 17.0917 27.9675C18.7106 27.9675 20.2907 27.4687 21.6183 26.5384C22.3379 25.9782 23.228 25.6844 24.1383 25.7066C25.0493 25.6804 25.9406 25.9747 26.6583 26.5384C27.9884 27.4681 29.5702 27.9664 31.1908 27.9664C32.8114 27.9664 34.3932 27.4681 35.7233 26.5384ZM35.7233 33.2624C36.442 32.7004 37.3327 32.4064 38.2433 32.4306H40.1217V28.6704H38.2433C36.6394 28.6509 35.0722 29.1522 33.775 30.0995C33.045 30.6399 32.162 30.9314 31.255 30.9314C30.348 30.9314 29.465 30.6399 28.735 30.0995C27.4049 29.1699 25.8231 28.6715 24.2025 28.6715C22.5819 28.6715 21.0001 29.1699 19.67 30.0995C18.94 30.6399 18.057 30.9314 17.15 30.9314C16.243 30.9314 15.36 30.6399 14.63 30.0995C13.3168 29.1401 11.7271 28.6381 10.1033 28.6704H8.16666V32.4306H10.045C10.9556 32.4064 11.8463 32.7004 12.565 33.2624C13.8927 34.1927 15.4727 34.6915 17.0917 34.6915C18.7106 34.6915 20.2907 34.1927 21.6183 33.2624C22.3379 32.7022 23.228 32.4084 24.1383 32.4306C25.0493 32.4044 25.9406 32.6987 26.6583 33.2624C27.9884 34.1921 29.5702 34.6904 31.1908 34.6904C32.8114 34.6904 34.3932 34.1921 35.7233 33.2624Z" fill="black"/>
</svg>
