<svg width="30" height="13" viewBox="0 0 30 13" fill="none" xmlns="http://www.w3.org/2000/svg">
<path fill-rule="evenodd" clip-rule="evenodd" d="M9.14952 6.86217C9.32238 6.86217 9.49225 6.84939 9.65825 6.82471C10.1645 6.74946 10.707 6.82954 11.0754 7.18498C11.459 7.55514 11.5501 8.12234 11.4731 8.64984C11.4493 8.81295 11.437 8.9798 11.437 9.14952C11.437 11.0445 12.9731 12.5806 14.868 12.5806C16.763 12.5806 18.2991 11.0445 18.2991 9.14952C18.2991 8.75087 18.2311 8.3681 18.1061 8.01218C18.1008 7.9969 18.1199 7.98444 18.1316 7.99569C18.1375 8.00137 18.1468 8.00137 18.1527 7.99569L18.9813 7.19612C19.3045 6.88423 19.773 6.79529 20.2196 6.84278C20.3402 6.8556 20.4626 6.86217 20.5866 6.86217C20.7594 6.86217 20.9293 6.84939 21.0952 6.82472C21.6015 6.74949 22.144 6.82957 22.5123 7.18499C22.8959 7.55515 22.987 8.12233 22.91 8.64982C22.8862 8.81294 22.8739 8.97979 22.8739 9.14952C22.8739 11.0445 24.41 12.5806 26.305 12.5806C28.1999 12.5806 29.736 11.0445 29.736 9.14952C29.736 7.25458 28.1999 5.71843 26.305 5.71843C25.7267 5.71843 25.1276 5.59718 24.7115 5.19567L24.5829 5.07161C24.1511 4.65494 24.0177 4.03113 24.0177 3.43108C24.0177 1.53615 22.4815 0 20.5866 0C18.6916 0 17.1555 1.53615 17.1555 3.43108C17.1555 3.52559 17.1593 3.6192 17.1668 3.71177C17.2134 4.28686 17.1044 4.89573 16.6892 5.29637C16.2915 5.68018 15.7104 5.777 15.1597 5.73065C15.0635 5.72256 14.9663 5.71843 14.868 5.71843C14.2898 5.71843 13.6907 5.59718 13.2746 5.19567L13.1458 5.07142C12.7141 4.6548 12.5806 4.03106 12.5806 3.43108C12.5806 1.53615 11.0445 0 9.14952 0C7.25458 0 5.71843 1.53615 5.71843 3.43108C5.71843 3.52559 5.72225 3.6192 5.72975 3.71178C5.77631 4.28687 5.66737 4.89573 5.25219 5.29637C4.85446 5.68016 4.2734 5.77699 3.72264 5.73065C3.62653 5.72256 3.52929 5.71843 3.43108 5.71843C1.53615 5.71843 0 7.25458 0 9.14952C0 11.0445 1.53615 12.5806 3.43108 12.5806C5.32602 12.5806 6.86217 11.0445 6.86217 9.14952C6.86217 8.75086 6.79418 8.36809 6.66917 8.01216C6.66381 7.99692 6.68291 7.9845 6.69453 7.99571C6.70041 8.00139 6.70972 8.00139 6.7156 7.99571L7.54422 7.19612C7.86743 6.88423 8.33592 6.79529 8.78256 6.84278C8.90312 6.8556 9.02555 6.86217 9.14952 6.86217Z" fill="black"/>
</svg>
